# xmcd
#
# Track frame offsets: 
#        150
#        13532
#        26229
#        38007
#        51069
#        67053
#        80278
#        95203
#        107338
#        119674
#        138203
#        154572
#        165137
#        176268
#        190868
#
# Disc length: 2762 seconds
#
# Revision: 6
# Processed by: cddbd v1.5.2PL0 Copyright (c) Steve Scherf et al.
# Submitted via: ExactAudioCopy v0.99pb4
#
DISCID=b50ac80f
DTITLE=Various Artist - Superstars Of Country: Easy Loving [CD1)
DYEAR=2005
DGENRE=Country
TTITLE0=Charlie Rich - Behind Closed Doors
TTITLE1=Lynn Anderson - Rose Garden
TTITLE2=Johnny Paycheck - Take This Job And Shove It
TTITLE3=Tanya Tucker - Delta Dawn
TTITLE4=Willie Nelson - Always On My Mind
TTITLE5=Crystal Gayle - Talking In Your Sleep
TTITLE6=George Jones - He Stopped Loving Her Today
TTITLE7=Tammy Wynette - Stand By Your Man
TTITLE8=Johnny Cash - Folsom Prison Blues (Live)
TTITLE9=Juice Newton - The Sweetest Thing
TTITLE10=Mickey Gilley - Stand By Me
TTITLE11=Willie Nelson - Blue Eyes Crying In The Rain
TTITLE12=Freddie Hart - Easy Loving
TTITLE13=Rosanne Cash - Seven Year Ache
TTITLE14=Charlie Daniels Band - The Devil Went Down To Georgia
EXTD=
EXTT0=
EXTT1=
EXTT2=
EXTT3=
EXTT4=
EXTT5=
EXTT6=
EXTT7=
EXTT8=
EXTT9=
EXTT10=
EXTT11=
EXTT12=
EXTT13=
EXTT14=
PLAYORDER=
